/* XPM */
static char *bc8125cfba214f6ea9273bc38b737f38QoExb9cGj8Nb94n5[] = {
/* columns rows colors chars-per-pixel */
"32 32 36 1 ",
"  c black",
". c #021C2C",
"X c #166088",
"o c #125174",
"O c #1A6D9A",
"+ c #1C729F",
"@ c #2181B5",
"# c #001803",
"$ c #1F79A9",
"% c #000D01",
"& c #013D0D",
"* c #035717",
"= c #196791",
"- c #01390C",
"; c #145A80",
": c #104D6E",
"> c #0F4A69",
", c #011420",
"< c #0A3953",
"1 c #0C415D",
"2 c #03601A",
"3 c #068328",
"4 c #00070E",
"5 c #07324A",
"6 c #07892A",
"7 c #002305",
"8 c #11CD43",
"9 c #057322",
"0 c #05273B",
"q c #268EC7",
"w c #024712",
"e c #01330A",
"r c #0BA334",
"t c #10BF3F",
"y c #13DD4A",
"u c #024612",
/* pixels */
"                                ",
"                                ",
"                                ",
"              22                ",
"              e-                ",
"          &3  ##  3&            ",
"          %*# ## #*%            ",
"            u%66%w              ",
"            #8--8#              ",
"         %  7-99-7  %           ",
"         r*et*yy*te*r           ",
"         %  7&99&7  %           ",
"            #8&&87              ",
"            w 66 w              ",
"          %*# ## #*%            ",
"          &3  ##  3&            ",
"              --                ",
"              22                ",
"                                ",
"                                ",
"                                ",
".;o          <X>         1<4 <  ",
"$>Xo.;,.;.4oo$15 :14:: 0o=1=X:  ",
"O .++=@$=@=X5+O>:+$+OXX+1O +q   ",
"$$@5++;O$o=  ..O@OOo< @X O,$@.  ",
"o   =+ ;$ : ,$$=0q0,<4>;q>>5,X  ",
"                                ",
"                                ",
"                                ",
"                                ",
"                                ",
"                                "
};
