/* XPM */
static char *f5e4b44be31c4421b07b6564062162b3eluN7vox5sPgSUcJ[] = {
/* columns rows colors chars-per-pixel */
"128 128 50 1 ",
"  c black",
". c #33B5FC",
"X c #34B9FF",
"o c #000E01",
"O c #3ACAFF",
"+ c #14E74D",
"@ c #15ED4F",
"# c #36C0FF",
"$ c #36BDFF",
"% c #13E04B",
"& c #042639",
"* c #258CC4",
"= c #17628A",
"- c #30ACF0",
"; c #2A9CDA",
": c #14597F",
"> c #38C5FF",
", c #125174",
"< c #17F552",
"1 c #1E77A6",
"2 c #0BA836",
"3 c #01111D",
"4 c #021A29",
"5 c #2283B7",
"6 c #024711",
"7 c #000307",
"8 c #088E2C",
"9 c #0C405D",
"0 c #0A9930",
"q c #024F14",
"w c #11D145",
"e c #068127",
"r c #2895D1",
"t c #08344C",
"y c #2DA3E4",
"u c #012806",
"i c #196893",
"p c #01330A",
"a c #001A03",
"s c #03621B",
"d c #035718",
"f c #12DA48",
"g c #013C0D",
"h c #1B709D",
"j c #0EBB3D",
"k c #046A1F",
"l c #010C15",
"z c #10C340",
"x c #057522",
"c c #14EDFF",
/* pixels */
"                                                                                                                                ",
"                                                                                                                                ",
"                                                                                                                                ",
"                                                                                                                                ",
"                                                                                                                                ",
"                                                                                                                                ",
"                                                                                                                                ",
"                                                                                                                                ",
"                                                                                                                                ",
"                                                                                                                                ",
"                                                                                                                                ",
"                                                                                                                                ",
"                                                           qq                                                                   ",
"                                                          x@@x                                                                  ",
"                                                          w++wo                                                                 ",
"                                                         ow++wo                                                                 ",
"                                                          8@@0                                                                  ",
"                                                           00                                                                   ",
"                                                           66                                                                   ",
"                                                           qq                                                                   ",
"                                           aed             6q             dea                                                   ",
"                                           2<@d            00            d@<j                                                   ",
"                                          p+%@2           of%o           2@%+p                                                  ",
"                                          p+%@0            ee            0@%+p                                                  ",
"                                           2<@e            66            e@<2                                                   ",
"                                           ok6eq           qq           6egko                                                   ",
"                                               8g          66          g8                                                       ",
"                                               u%2         kk         0+u                                                       ",
"                                               off        e++e        wfo                                                       ",
"                                                pes      p++++p      sep                                                        ",
"                                                  eq o   d@%%@s   o 6e                                                          ",
"                                                   e0w2a q@%%@q a2w0e                                                           ",
"                                                   k<%<2  z@@zo 0<%<k                                                           ",
"                                                   2@%+wa a22u ow+%@2                                                           ",
"                                                   2@%+wa  66  ow+%@2                                                           ",
"                                                   s<%<2   qq   2<%<k                                                           ",
"                                                    8w28u  qq  u82w8                                                            ",
"                                                     a a8oqjjdo8a a                                                             ",
"                                                  oo    pz+@@+zg    oo                                                          ",
"                                     g8g         dwwd   p+%%%%+p   dwwd         p8g                                             ",
"                                    u%<fa  og   of@@%a  8@%%+%@8  a%@@%a   go  af<%p                                            ",
"                                    x@f@2ss2@ess0+%%+0skz+%+%%+zks0+%%+0sse@2ss0@f@e                                            ",
"                                    x@f@0qq0%xdq8+%%+8qdj+%%+%@zdq8+%%+8qdk%0qq8@f<x                                            ",
"                                    aw<wo   u   ow@@fo  e@%+%%@e  of@@fo   u   ow<wu                                            ",
"                                     uku         6jj6   u++%%++u   6jj6         uku                                             ",
"                                                        62%@@%j6                                                                ",
"                                                     u u8 g22g 8u u                                                             ",
"                                                    0%z0a  66  a0j%0                                                            ",
"                                                   x<%<2   qq   2<%<x                                                           ",
"                                                   2@%+fa  qq  ow+%@2                                                           ",
"                                                   0@%+wo pjjp ow+%@0                                                           ",
"                                                   k<+<0 ow@@wo 8<+<k                                                           ",
"                                                  o8ej0o q@%%@d o0je8o                                                          ",
"                                                  8g     d@%%@s     p8                                                          ",
"                                                60d      u%+++u      d86                                                        ",
"                                               o%f        kffk        w+o                                                       ",
"                                               pf8         ss         8%p                                                       ",
"                                              o8u          6q          u8o                                                      ",
"                                           aedeg           qq           pedea                                                   ",
"                                           j<<e            66            e<<j                                                   ",
"                                          p+%@2            80            0@%+p                                                  ",
"                                          p+%@2           of%o           2@%+p                                                  ",
"                                           2<+q            88            6+<2                                                   ",
"                                            sg             66             gso                                                   ",
"                                                           qq                                                                   ",
"                                                           66                                                                   ",
"                                                          o22o                                                                  ",
"                                                          0<<2                                                                  ",
"                                                         ow%%wo                                                                 ",
"                                                          z++z                                                                  ",
"                                                          s+@k                                                                  ",
"                                                           gg                                                                   ",
"                                                                                                                                ",
"                                                                                                                                ",
"                                                                                                                                ",
"                                                                                                                                ",
"                                                                                                                                ",
"                                                                                                                                ",
"                                                                                                                                ",
"                                                                                                                                ",
"                                                                                                                                ",
"                                                                                                                                ",
"                                                                                                                                ",
"                                                                                                                                ",
"                                                                                                                                ",
"                                                                                                     1r9                        ",
"  7:111111ht                                         4i111111159                                     yO: =11t       =159        ",
" 7r>$#####$$h                                       ,.$######$Oh                                     ;>: ,O>y      9#>y3        ",
" :>X$$$$$$$X>9                                     3.X$$$$$$$XOi                                     ;O:  1$$i    &.X.4         ",
" *>*t99999,-#;                                     =#.it99999994                                     ;O:  7;$$9   *##h          ",
" rO:       :#.&   9=====:3    &======&     t=====: 5O*         7    t=====:4   4======:4      9i==i, ;O:   9#X;7 :XX*           ",
" rO:       4.#9  5#$#####-4  ,$$####$$,   =#$##$#.l5O1             i#$#####.t  5O$#####.:   71$##$>y7;O:    h$#h4.XX4           ",
" rO:       3-#9 ,>.#####X#* 4.X$####$X.4 &$X$##$#X7h>y& 7   7     t#X$####X$y7 r$X####$X#9  :>X##$>y7;O:     ;#.y.#=            ",
" rO:       l-#t 5>y,,,,,*X.l,>.i,,,,h.#, =>y:,,,,, t#X-;;;;;;*,   h>-:,,,,5XXt *>*,,,,i-#r  *>r,,,:9 ;O:     9XXX#5             ",
" rO:       &X$t ;Oi     4.#&:O;      rOi 1O5        5>X#$$$$$$>h  5O5     7y>9 *O=     ,#.4 yO,      ;O:      =#..4             ",
" rO: 7777 3;$-l rO: 777 9$X4:O* 777 4->= 1O5        7h-------.X$& 5O1 777 t.#9 *Oi     4.#t ;O:      ;O:     7*$.Xt             ",
" rO,,-;;;;yX#5  rO:4y;;;-$- =O*7*y;;y.#t 1O5          333333l9-#1 5Ohl;;;;-X.4 *Oi     4.#t ;O:      ;O:     h>XXX-4            ",
" rO,=O$$$#$>y3  rO,&O$$#X>= iO*7->$#X>r7 1O5                  1O* 5Oh3##$#X>1  *Oi     4.#t ;O:      ;O:    &.$y1$#*            ",
" rO,:X-----54   rO,&.----h  iO*7;.---r3  1O5                  hO* 5Ohl----.57  *Oi     4.#t ;O,      ;O:   7yX$9 ;$X,           ",
" rO: 433333     rOi 33333   =Or l3333    1O5                 3y>5 5O5 33333    *Oi     4.#t y>=     7y>:   =#$*  4-X.&          ",
" rO:            1>-*55*,    9#.r55*1     1O5       ir********yX#9 =>-*55*=     *Oi     4.#t 1>-*****r.#t  tXXyl   =#$*          ",
" rO:            t$$$#$O1    7;>$##>-7    1O5       *O$#######X>r  4.#$#$Or     *Oi     3.#t &$$$####$>r7 7-X#t     *$$:         ",
" rO:             ,-X..#h     &;...Xy7    1O5       5#.......X-53   tyX..#*     *Oi     4.#t  9yX....X53  i#$1      3-XXt        ",
" 4&l              l&&&&3       &&&&4     3&4       4&&&&&&&&&4     77&&&&4     4&3      &&7   3&&&&&&    &&&7       4&&l        ",
"  7                                7      7                                     7                                               ",
"                                                                                                                                ",
"                                                                                                                                ",
"                                                                                                                                ",
"                                                                                                                                ",
"                                                                                                                                ",
"                                                                                                                                ",
"                                                                                                                                ",
"                                                                                                                                ",
"                                                                                                                                ",
"                                                                                                                                ",
"                                                                                                                                ",
"                                                                                                                                ",
"                                                                                                                                ",
"                                                                                                                                ",
"                                                                                                                                ",
"                                                                                                                                ",
"                                                                                                                                ",
"                                                                                                                                ",
"                                                                                                                                ",
"                                                                                                                                ",
"                                                                                                                                ",
"                                                                                                                                ",
"                                                                                                                                "
};
