/* XPM */
static char *f28a77bd06fe4141cb04a1d5ccad2922gNtwF1lxiivWOXkG[] = {
/* columns rows colors chars-per-pixel */
"16 16 20 1 ",
"  c black",
". c #010C16",
"X c #013F0E",
"o c #012806",
"O c #13577D",
"+ c #0C405C",
"@ c #000405",
"# c #125377",
"$ c #0F4969",
"% c #002205",
"& c #17628A",
"* c #001602",
"= c #035E1A",
"- c #032132",
"; c #052639",
": c #031929",
"> c #01370D",
", c #035517",
"< c #078429",
"1 c #0A9530",
/* pixels */
"                ",
"       %        ",
"     o % o      ",
"     *%>%*      ",
"    @ ,<, @     ",
"    %o=1=o%     ",
"      X=X       ",
"     X * X      ",
"       >        ",
"                ",
":.    .:    ..@ ",
"O####+##$#$+$O$ ",
"+;&O&--O&$;O$++ ",
"      @ @@  @   ",
"                ",
"                "
};
