/* XPM */
static char *_09a318436224d60b8a0aceabb122c56X0gcR0ZtUWAkhoGY[] = {
/* columns rows colors chars-per-pixel */
"64 64 58 1 ",
"  c black",
". c #2998D5",
"X c #2284B9",
"o c #2893CE",
"O c #000500",
"+ c #207CAE",
"@ c #2EA7EA",
"# c #024812",
"$ c #35BCFF",
"% c #002105",
"& c #000408",
"* c #145B81",
"= c #1A6B97",
"- c #001702",
"; c #057422",
": c #013B0C",
"> c #04691E",
", c #33B4FB",
"< c #248BC2",
"1 c #125478",
"2 c #010D16",
"3 c #18FE56",
"4 c #2B9DDC",
"5 c #0A972F",
"6 c #035115",
"7 c #18638D",
"8 c #39C7FF",
"9 c #0A9E32",
"0 c #17F351",
"q c #278FC8",
"w c #000E01",
"e c #012906",
"r c #0D4564",
"t c #2DA3E4",
"y c #176089",
"u c #1E75A3",
"i c #0BA535",
"p c #31ADF1",
"a c #031B2A",
"s c #032233",
"d c #073249",
"f c #013009",
"g c #011622",
"h c #088E2C",
"j c #0A3B55",
"k c #10C23F",
"l c #1B709D",
"z c #14E84E",
"x c #15ED4F",
"c c #03601A",
"v c #0C425F",
"b c #1CFF60",
"n c #10C741",
"m c #104D6E",
"M c #068529",
"N c #12D847",
"B c #05283C",
"V c #0DB039",
/* pixels */
"                                                                ",
"                                                                ",
"                                                                ",
"                                                                ",
"                                                                ",
"                                                                ",
"                             ;;                                 ",
"                            OzzO                                ",
"                             hh                                 ",
"                             --                                 ",
"                     :i-     ##     -i:                         ",
"                     hb6     >>     #bh                         ",
"                     fi6     --     #if                         ",
"                       :;    ff   O;:                           ",
"                        5%  OknO  %5                            ",
"                         #>e%00%e>#                             ",
"                         #3nO99On3#                             ",
"                         #3N ww N3#                             ",
"                          6>%cc%>6                              ",
"                  wf    w;O M00M  ;w    fw                      ",
"                  90#6;%93iekzznei39%;6#09                      ",
"                  5x:#>-539%kzzk%935->#:x5                      ",
"                  O%    O>  MxxM  >O    %O                      ",
"                          c;%66-;c                              ",
"                         #3N -- N3#                             ",
"                         #3nOiiOk3#                             ",
"                         #c%%00e%c#                             ",
"                        9%  OkkO  %9                            ",
"                       :;    ee    ;:                           ",
"                     :V6     %%     #V:                         ",
"                     hb6     >>     #bh                         ",
"                     f5w    O:#     w5f                         ",
"                             --                                 ",
"                             55                                 ",
"                            OzzO                                ",
"                             c>                                 ",
"                                                                ",
"                                                                ",
"                                                                ",
"                                                                ",
"                                                                ",
"                                                                ",
"                                                  sd            ",
" =t4t<g                   r444@+                  7og@d  2.1    ",
"v$XX+p.                  a$oXX<7                  *o <,& <,&    ",
"7q   a$2gqo.u 2X..X2 1..+*t      g<o.+ soo.+2 s<4u7o &,uv8B     ",
"yo   &pa<pXX$m=$XX$lg$qq+j$71*1g <,XX$*v8<<,o .@ql7o  d$$7      ",
"yo & j$g@d  ++<1  yqjt    =$$$8@&tv  u+r.  a,a@B  *o   .$2      ",
"7qX$p8+ t1@,8j<yo,81d@     &&&2prq*4,8vr4  2pstd  *o  1$,X      ",
"yqr==1  @r*=m .yml* jt         @mo11=1 m.  2ps@d  y. 28*s8r     ",
"=4      X$4+  =$4<  rp   j,@p@,,&u$4X  *t  2$g+$@@87 @4  =8a    ",
"j1      2=+*  &y+=& sy   B+luuls &7+7  d*  &=&&=uu* a+a   lr    ",
"                                                                ",
"                                                                ",
"                                                                ",
"                                                                ",
"                                                                ",
"                                                                ",
"                                                                ",
"                                                                ",
"                                                                ",
"                                                                ",
"                                                                ",
"                                                                "
};
